<?xml version="1.0" encoding="UTF-8"?><svg id="a" xmlns="http://www.w3.org/2000/svg" viewBox="0 0 1024 1024"><defs><style>.b{fill:#fff;}</style></defs><path d="M1024,675.41c0,118,0,151.12-17.08,201.92-21.95,60.06-69.53,107.64-129.59,129.59-50.8,17.08-83.91,17.08-201.92,17.08h-326.81c-118,0-151.12,0-201.92-17.08-60.06-21.95-107.64-69.53-129.59-129.59C0,826.52,0,793.41,0,675.41v-326.81C0,230.59,0,197.48,17.08,146.68,39.03,86.61,86.61,39.03,146.68,17.08,197.48,0,230.59,0,348.59,0h326.81C793.41,0,826.52,0,877.32,17.08c60.06,21.95,107.64,69.53,129.59,129.59,17.08,50.8,17.08,83.91,17.08,201.92v326.81Z"/><path class="b" d="M552.39,876.12c-.22-1.52-.46-3.04-.7-4.58-1.37-8.7-3.02-17.91-4.65-27.63-2.13-12.65-6.91-28.71-13.41-38.3-2.92-4.31-6.19-7.31-9.72-8.11-8.34-1.9-11.42-6.64-13.68-16.03-.33-1.39-1.06-5.18-1.18-6.48-.82-8.16.46-17.42.09-25.82,1.32-.4,2.6-.79,3.88-1.18-.11-3.66.02-7.33.43-10.89-11.83,10.54-23.02,21.81-33.47,33.72.29-13.69,4.16-26.49,10.71-37.51-40.84,21.38-78.16,48.5-123.61,61.73,25.84-16.35,49.66-35.71,70.94-57.62-44.8,19.05-91.3,33.82-139.15,44.11,18.67.23,37.37-.91,55.46-3.3-13.81,11.18-28.41,21.43-43.69,30.64-2.9.49-5.83.93-8.77,1.35,23.87,17.03,49.75,31.42,77.23,42.73,43.51,17.91,91.02,28.13,140.82,28.94-8.29,5.89-13.7,15.56-13.7,26.5,0,.9.04,1.79.12,2.68,1.35-16.71,15.01-27.32,32.06-27.32,5.02,0,8.14,0,15.15.72-.11-.87-.22-1.75-.33-2.63-.25-1.88-.53-3.79-.82-5.72Z"/><path class="b" d="M630.53,811.39c-1.21-4.58-11.69-30.72-14.82-34.18-5.79-6.43-12.76-3.33-12.49-14.04.03-1.23.11-2.49.23-3.79,1.1-12.25,5.73-27.29,10.02-38.07,1.19-2.98,2.91-5.23,3.85-8.12-.19-.2-.56-.16-1.04.04-.44.25-.88.5-1.31.75-3.87,2.62-10.97,9.98-12.04,11.14-9.48,10.25-16.54,23.22-22.91,35.82-.62,1.22-1.23,2.43-1.83,3.63-2.88,5.74-13.32,26.06-14.29,30.74-.55,2.6-.3,5.63-.1,8.29l5.05,34.04.03.17,5.18,34.81v.02l1.96,13.21.11.76s-.06.01-.09.02l.48,3.25c1.66.54,3.36,1.02,5.08,1.41,4.79,1.13,9.78,1.73,14.91,1.73,11.23,0,21.14,5.7,26.98,14.36,3.03,4.49,4.97,9.78,5.43,15.48.07-.88.11-1.76.11-2.67,0-5.38-1.3-10.44-3.62-14.91-3.1-5.98-8-10.89-13.98-13.98-3.9-2.02-8.28-3.27-12.91-3.56-.51,0-1.02-.02-1.52-.05-7.92-.49-15.08-3.82-20.47-8.98,24.04-3.11,47.39-8.42,69.84-15.73-6.26-21.57-10.4-30.98-15.86-51.58Z"/><path class="b" d="M904.22,492.15c2.39-36.58-.38-72.31-7.71-106.46,1.21,2.69,2.38,5.41,3.51,8.14-2.1-7.81-4.45-15.51-7.02-23.1-15.85-46.81-40.42-89.6-71.78-126.44-50.14-58.93-117.65-102.64-194.6-123.22-23.31-6.23-47.5-10.35-72.33-12.11,24.68,10.17,48.08,22.81,69.89,37.61,3.15,2.14,6.27,4.33,9.35,6.56-3.2-1.32-6.42-2.6-9.67-3.83-42.78-16.3-89.21-25.23-137.73-25.23-43.17,0-84.68,7.07-123.46,20.11-72.53,33.91-132.81,89.65-172.38,158.78-29.46,51.45-47.44,110.32-50.46,173.11,10.77-26.52,24.4-51.57,40.51-74.77,1.43-2.07,2.88-4.12,4.35-6.16-1.46,3.53-2.86,7.09-4.21,10.67-16.06,42.51-24.86,88.61-24.86,136.74,0,27.87,2.94,55.06,8.55,81.26,1.42,6.67,3.01,13.27,4.78,19.8,10.55,25.35,23.73,49.32,39.18,71.6,28.71-25.82,59.32-49.52,91.55-70.79-16.74,6.2-32.97,13.52-48.66,21.97,53.39-66.88,121.81-121.26,195.13-165.61-47,18.06-89.58,45.03-125.68,78.84,51.19-68.21,125.7-119.26,209.66-141.4-27.44,3.76-54.74,10.64-80.42,20.13,40.55-20.33,85.44-35.17,131.01-39.06,35.21-.52,65.5,29.8,65.01,65.01,0,14.17-4.54,27.28-12.23,37.96.27-.04.54-.07.81-.1-37.9,50.43-88.61,91.74-146.39,118.47,34.67-26.22,64.83-58.21,88.96-94.46-88.22,84.29-196.23,147.36-313.48,182.12,41.22-29.1,79.56-62.22,114.36-98.73-46.12,42.19-97.41,78.77-152.33,108.69.08.1-36.33,19.33-55.22,27.76,18.7-1.97,37.2-4.63,55.48-7.92-43.59,53.9-80.1,113.77-108.09,178.2,6.09-6.93,12.66-13.43,19.67-19.43,26.66-57.83,60.26-111.81,99.7-160.89,1.05-.2,2.1-.4,3.14-.61.02.02.03.04.05.05,158.79-29.37,310.32-103.02,413.26-228.79,0,0,0,0,0,0,38.51-56.21-12.63-132.5-79.23-118.32,26.03-12.27,39.76-41.97,35.59-70.07,7.56,6.42,14.09,14,19.37,22.41-10.74-25.42-32.68-44.46-58.39-53.8-24.22-9.9-50.64-14.79-76.92-14.21,38.26-19.9,80.88-17.3,120.76-3.63-13.04-10.55-28.8-17.61-45.39-20.22-25.05-4.28-64.04,3.23-78.61,25.45h0c-1.86,2.92-3.5,5.97-4.88,9.17-.26-13.2,3.68-26.47,11.03-37.32,0,0,0,0,0,0,0,0,0,0,0-.02,2.55-3.78,5.04-7.83,8.75-10.45,14.8-10.46,33.8-13.84,51.8-17t.02,0c4.6-.3,9.36-.89,13.7-2.19,7.83-2.15,15.24-5.76,21.71-10.61.64.46,1.29.93,1.92,1.41.12-.84.27-1.69.46-2.51,18.71-6.99,39.53-14.75,59.86-9.24-.59-1-1.22-1.97-1.9-2.9,38.93,2.34,74.11,15.63,104.21,37.97-10.07-2.86-20.27-4.89-30.75-6.09,37.01,24.5,65.09,61.87,78.06,104.38-11.21-16.45-24.97-31.12-40.63-43.41,24.56,27.26,40.9,60.63,47.06,97.18.76,4.46,1.35,8.98,1.79,13.54-10.21-25.65-25.95-48.92-45.83-68.01,40.63,84.17,8.8,193.77-70.08,243.1,34.91-10.36,66.28-30.6,90.18-57.82-10.33,41.85-27.25,82.43-51.13,118.21,5.68-18.76,9.92-37.83,12.69-57.29-34.79,40.05-73.71,76.49-115.92,108.63,3.37-1.35,6.84-2.73,10.45-4.16,13.59-4.97,26.71-12.65,39.33-21.6,9.61-6.81,18.92-14.36,27.94-22,2.65-1.74,5.28-3.49,7.91-5.27-3.64,13.95-10.62,28.38-17.34,41.07-9,16.97-44.13,69.36-49.69,80.71l-4.44,9.75c.08.79.15,1.56.24,2.34,2.13,20.89,6.55,40.55,11.51,57.53h0c.23.82.47,1.6.71,2.4h0c1.37,4.61,2.78,8.99,4.18,13.15.05-.02.11-.04.16-.06.17.71.38,1.51.62,2.36.47,1.36.93,2.7,1.39,4h0c1.84,5.14,3.63,9.83,5.3,14.02.53,1,.96,1.6,1.21,1.6,5.67,0,11.17.73,16.42,2.09.6.15,1.2.33,1.79.5,1.2.07,2.37.19,3.52.37,8.84,1.42,16.5,6.41,21.42,13.44,0,0,0,0,0,0,2.76,3.93,4.67,8.5,5.47,13.44.28-1.7.42-3.44.42-5.22,0-.81-.03-1.6-.09-2.39-.74-10.14-6.13-18.98-14.04-24.42,1.6-.24,3.23-.36,4.9-.36,17.05,0,31.04,13.14,32.4,29.85.07-.88.11-1.77.11-2.68,0-17.94-14.55-32.5-32.5-32.5-2.94,0-5.8.39-8.52,1.13-.93.35-1.89.66-2.86.92-.09.03-.18.07-.27.1-.02,0-.03,0-.05-.02-2.63.69-5.38,1.05-8.22,1.05-4.09,0-8-.76-11.6-2.13-1.75.45-3.37-11.15-7.22-16.51-.54-.74-1.14-1.29-1.77-1.73,96.82-39.22,174.15-116.47,213.47-213.23,7.54-18.56,13.69-37.83,18.3-57.7-5.59,9.76-11.59,19.25-17.97,28.45-6.22,8.98-12.82,17.67-19.77,26.06,7.17-14.62,13.46-29.77,18.78-45.39,10.74-31.53,17.56-64.98,19.83-99.82Z"/><path class="b" d="M626.27,254.52c0,6.66,5.4,12.07,12.07,12.07s12.07-5.4,12.07-12.07-5.4-12.07-12.07-12.07-12.07,5.4-12.07,12.07Z"/></svg>